# xmcd CD database file
#
# Track frame offsets:
#	150
#	33505
#	58485
#	86326
#	117234
#	145371
#	169698
#	198300
#	218153
#	248813
#	275185
#	304062
#	330636
#
# Disc length: 4798 seconds
#
# Revision: 0
# Processed by: cddbd v1.5.2PL0 Copyright (c) Steve Scherf et al.
# Submitted via: CDex 1.70beta2
#
DISCID=c512bc0d
DTITLE=Various Artist - The traditions of Japan koto music CD1
DYEAR=2003
DGENRE=New Age
TTITLE0=Yeskim - Fujitemper
TTITLE1=Yeskim - Amaterasu Brightness
TTITLE2=Yeskim - Ikebana's Sacrifice
TTITLE3=Michiko Tanaka - Bibrations
TTITLE4=Yeskim - Kabuki Masquerade
TTITLE5=Yeskim - Overhelming Morning Glory
TTITLE6=Yeskim - Tokugawa Aureole
TTITLE7=Michiko Tanaka - Melting Souls
TTITLE8=Yeskim - Tsuki-Yomi's Intuition
TTITLE9=Yeskim - Waterfalls of Wisdom
TTITLE10=Yeskim - Yamagara Pearls
TTITLE11=Michiko Tanaka - Emotional Balance
TTITLE12=Yeskim - Tokyo Bay
EXTD=YEAR: 2003
EXTT0=
EXTT1=
EXTT2=
EXTT3=
EXTT4=
EXTT5=
EXTT6=
EXTT7=
EXTT8=
EXTT9=
EXTT10=
EXTT11=
EXTT12=
PLAYORDER=
